<svg id="visual" viewBox="0 0 900 145" width="900" height="145" xmlns="http://www.w3.org/2000/svg" xmlns:xlink="http://www.w3.org/1999/xlink" version="1.1"><rect x="0" y="0" width="900" height="145" fill="#92C7CF"></rect><path d="M0 92L18.8 86.3C37.7 80.7 75.3 69.3 112.8 70.7C150.3 72 187.7 86 225.2 86.3C262.7 86.7 300.3 73.3 337.8 68.8C375.3 64.3 412.7 68.7 450.2 76.5C487.7 84.3 525.3 95.7 562.8 95.5C600.3 95.3 637.7 83.7 675.2 83.8C712.7 84 750.3 96 787.8 96.3C825.3 96.7 862.7 85.3 881.3 79.7L900 74L900 146L881.3 146C862.7 146 825.3 146 787.8 146C750.3 146 712.7 146 675.2 146C637.7 146 600.3 146 562.8 146C525.3 146 487.7 146 450.2 146C412.7 146 375.3 146 337.8 146C300.3 146 262.7 146 225.2 146C187.7 146 150.3 146 112.8 146C75.3 146 37.7 146 18.8 146L0 146Z" fill="#FBF9F1" stroke-linecap="round" stroke-linejoin="miter"></path></svg>