<svg id="visual" viewBox="0 0 900 145" width="900" height="145" xmlns="http://www.w3.org/2000/svg" xmlns:xlink="http://www.w3.org/1999/xlink" version="1.1"><rect x="0" y="0" width="900" height="145" fill="#92C7CF"></rect><path d="M0 46L21.5 43C43 40 86 34 128.8 29.3C171.7 24.7 214.3 21.3 257.2 22C300 22.7 343 27.3 385.8 31.3C428.7 35.3 471.3 38.7 514.2 40.7C557 42.7 600 43.3 642.8 40.8C685.7 38.3 728.3 32.7 771.2 33C814 33.3 857 39.7 878.5 42.8L900 46L900 0L878.5 0C857 0 814 0 771.2 0C728.3 0 685.7 0 642.8 0C600 0 557 0 514.2 0C471.3 0 428.7 0 385.8 0C343 0 300 0 257.2 0C214.3 0 171.7 0 128.8 0C86 0 43 0 21.5 0L0 0Z" fill="#FBF9F1" stroke-linecap="round" stroke-linejoin="miter"></path></svg>